<?xml version="1.0" standalone="no"?>
<!DOCTYPE svg PUBLIC "-//W3C//DTD SVG 20010904//EN"
 "http://www.w3.org/TR/2001/REC-SVG-20010904/DTD/svg10.dtd">
<svg version="1.0" xmlns="http://www.w3.org/2000/svg"
 width="807.000000pt" height="807.000000pt" viewBox="0 0 807.000000 807.000000"
 preserveAspectRatio="xMidYMid meet">
<metadata>
Created by potrace 1.14, written by Peter Selinger 2001-2017
</metadata>
<g transform="translate(0.000000,807.000000) scale(0.100000,-0.100000)"
fill="#000000" stroke="none">
<path d="M5615 6185 c-5 -2 -23 -6 -39 -10 -31 -7 -55 -29 -221 -210 -55 -60
-123 -134 -151 -164 -29 -31 -65 -70 -80 -87 -16 -17 -75 -80 -131 -140 -55
-60 -114 -122 -129 -139 -15 -16 -52 -57 -83 -91 -109 -117 -258 -279 -286
-309 -140 -152 -190 -205 -196 -205 -4 0 -14 6 -21 13 -11 10 -162 140 -243
209 -11 9 -31 27 -45 38 -14 12 -49 43 -79 68 -66 57 -127 110 -207 179 -32
28 -70 61 -84 73 -14 11 -47 40 -75 63 -27 23 -72 62 -100 87 -29 25 -74 64
-101 86 -27 23 -60 52 -74 64 -54 46 -78 67 -140 120 -36 30 -70 60 -76 65 -6
6 -37 33 -69 60 -32 28 -66 57 -74 66 -30 30 -66 47 -116 55 -65 10 -255 11
-325 1 -65 -9 -63 -7 -306 -292 -89 -105 -177 -208 -196 -230 -27 -31 -311
-363 -474 -555 -12 -14 -56 -65 -99 -115 -79 -92 -109 -128 -235 -275 -87
-101 -171 -198 -185 -214 -6 -6 -60 -69 -120 -141 -60 -71 -114 -135 -120
-141 -5 -6 -28 -32 -50 -58 -22 -27 -49 -58 -60 -70 -11 -12 -39 -44 -62 -72
-39 -46 -55 -65 -106 -124 -12 -14 -47 -55 -77 -90 -30 -36 -57 -67 -60 -70
-3 -3 -30 -34 -60 -70 -30 -36 -59 -70 -65 -76 -5 -7 -29 -34 -51 -60 -23 -27
-65 -76 -94 -109 l-51 -60 5 -110 c8 -135 12 -160 42 -256 27 -86 84 -180 135
-223 129 -110 334 -128 609 -56 40 10 71 37 265 234 352 355 463 477 620 680
17 22 47 60 69 85 49 59 58 71 131 161 32 41 64 80 70 86 6 6 31 35 56 65 109
130 299 351 368 429 42 47 81 90 86 96 52 59 160 177 201 222 l51 55 70 -69
c206 -202 373 -352 606 -542 97 -80 177 -148 177 -151 0 -3 -17 -24 -38 -47
-20 -22 -66 -74 -102 -114 -36 -40 -69 -78 -75 -84 -40 -45 -98 -111 -140
-161 -27 -32 -55 -63 -60 -69 -6 -6 -78 -90 -160 -186 -82 -96 -152 -177 -155
-180 -3 -3 -25 -30 -50 -60 -43 -53 -84 -101 -105 -124 -6 -6 -52 -62 -103
-124 -106 -128 -113 -150 -115 -322 -3 -197 16 -264 112 -390 168 -222 378
-266 647 -135 78 37 101 55 161 122 101 112 108 119 213 233 52 57 104 114
115 126 78 85 246 264 325 348 187 196 366 380 385 396 12 10 35 -5 127 -83
62 -53 122 -104 133 -114 11 -10 52 -45 90 -78 39 -33 72 -62 75 -65 3 -3 43
-39 90 -80 47 -41 98 -87 115 -102 16 -14 39 -35 51 -45 29 -25 165 -148 201
-181 16 -15 78 -72 137 -127 59 -55 113 -102 118 -104 6 -2 27 -14 46 -27 95
-65 320 -160 470 -198 155 -41 377 -55 542 -35 106 13 305 64 402 103 157 64
195 85 284 162 117 102 349 335 402 404 23 30 45 60 49 65 77 101 172 278 223
415 47 127 59 171 78 290 14 90 7 380 -12 465 -10 44 -19 88 -21 97 -13 65
-87 254 -142 366 -66 134 -83 155 -217 276 -16 14 -67 61 -114 103 -47 43 -93
85 -103 93 -9 9 -55 49 -100 90 -46 41 -110 99 -144 128 -33 30 -71 64 -85 76
-52 47 -138 123 -200 176 -36 30 -83 71 -105 91 -22 20 -53 47 -69 60 -16 13
-36 31 -45 39 -15 15 -119 104 -171 148 -14 11 -79 66 -145 123 -176 149 -210
178 -320 269 -55 45 -122 101 -148 124 -27 22 -63 47 -80 55 -29 12 -186 24
-212 16z m242 -1462 c33 -27 77 -61 98 -78 21 -16 43 -35 49 -40 6 -6 49 -42
96 -80 96 -79 115 -95 185 -156 28 -24 77 -66 109 -94 33 -27 72 -63 89 -78
17 -15 58 -51 91 -80 110 -94 220 -212 259 -278 128 -218 80 -424 -148 -637
-88 -82 -117 -94 -245 -96 -148 -3 -213 23 -347 134 -54 45 -109 91 -123 103
-23 19 -232 200 -256 222 -91 82 -238 219 -313 290 -190 182 -217 211 -209
220 5 6 52 66 105 135 90 116 161 203 230 280 107 121 256 278 264 279 4 1 33
-20 66 -46z"/>
</g>
</svg>
