<svg width="463" height="463" viewBox="0 0 463 463" fill="none" xmlns="http://www.w3.org/2000/svg">
<path d="M26.5321 199.63C27.9234 203.247 32.0179 206.666 39.2529 210.283C46.5276 213.941 47.8792 215.65 58.2148 233.896C62.3888 241.251 65.8473 247.293 65.9665 247.293C66.0858 247.293 69.3853 241.688 73.281 234.85C84.9682 214.457 85.326 214.02 93.7535 209.727C99.7959 206.666 103.413 203.645 105.083 200.306C105.639 199.192 106.037 198.199 105.997 198.119C105.918 198.04 103.97 198.874 101.624 199.988C99.3189 201.061 93.8728 203.406 89.5397 205.195C85.2067 206.984 81.0725 208.852 80.3967 209.409C79.5619 210.005 77.5345 212.947 75.0699 217.121C72.8835 220.818 70.8958 223.76 70.6971 223.64C70.2598 223.362 68.7492 218.472 68.7492 217.28C68.7492 216.405 69.6635 215.372 70.7368 215.014C71.5716 214.736 68.5107 213.901 66.6821 213.901C65.887 213.901 64.9727 214.179 64.6547 214.497C64.0187 215.093 63.8597 215.571 62.3491 220.738C61.872 222.448 61.3553 223.839 61.1565 223.839C60.9975 223.839 59.1689 220.937 57.062 217.359C54.9551 213.782 52.729 210.363 52.0929 209.767C51.3774 209.091 47.7599 207.382 42.4728 205.195C37.782 203.247 32.2167 200.862 30.0303 199.829C27.8837 198.835 26.0551 198 26.0153 198C25.9358 198 26.1743 198.715 26.5321 199.63Z" fill="#442862"/>
<path d="M27.8047 208.016C27.8444 209.249 29.4345 211.832 31.1439 213.423C33.2905 215.41 38.4186 217.954 42.0361 218.908C43.4274 219.226 44.6597 219.465 44.7392 219.346C45.1368 218.948 41.8373 216.166 39.6112 215.052C36.0334 213.264 32.6942 211.236 30.1103 209.249C28.8383 208.295 27.8047 207.738 27.8047 208.016Z" fill="#442862"/>
<path d="M101.226 209.726C99.7555 210.839 96.615 212.787 94.2299 214.059C91.805 215.331 89.2608 217.041 88.3863 217.915L86.8359 219.545L88.426 219.267C93.1566 218.432 98.8412 215.649 101.584 212.827C103.134 211.276 104.407 208.812 104.049 208.017C103.969 207.858 102.737 208.613 101.226 209.726Z" fill="#442862"/>
<path d="M94.5885 220.897C92.9587 221.612 90.0567 222.526 88.1486 222.884C86.2007 223.242 84.6504 223.719 84.6504 223.878C84.6504 224.673 86.8368 225.587 88.6654 225.548C91.0505 225.508 94.986 223.441 96.7351 221.334C97.3712 220.539 97.8482 219.823 97.729 219.744C97.6494 219.664 96.2184 220.181 94.5885 220.897Z" fill="#442862"/>
<path d="M34.5625 220.183C34.5625 221.018 37.5837 223.562 39.6508 224.556C42.6322 225.907 45.3752 225.907 46.7268 224.595L47.7206 223.562L44.8186 223.045C42.354 222.647 37.9812 221.256 35.278 220.063C34.8408 219.904 34.5625 219.944 34.5625 220.183Z" fill="#442862"/>
<path d="M48.9518 228.292C48.7133 228.53 47.6002 228.928 46.4077 229.206L44.3008 229.683L45.6921 230.518C48.276 232.108 50.7804 231.432 50.2239 229.246C49.9059 227.974 49.5481 227.695 48.9518 228.292Z" fill="#442862"/>
<path d="M82.027 228.767C81.5897 230.636 81.9475 231.192 83.6966 231.312C84.9687 231.391 85.6047 231.232 86.4793 230.477L87.5923 229.523L86.042 229.244C85.1674 229.085 83.9749 228.688 83.3786 228.37C82.345 227.813 82.2655 227.853 82.027 228.767Z" fill="#442862"/>
<path d="M57.5799 255.244L53.7637 260.69L56.1091 262.161C57.4209 262.996 58.534 263.592 58.6135 263.512C58.7725 263.314 61.5949 249.957 61.4756 249.838C61.4359 249.798 59.6868 252.223 57.5799 255.244Z" fill="#442862"/>
<path d="M70.7363 250.71C70.7761 252.181 73.3202 263.193 73.6383 263.232C73.837 263.272 74.9501 262.716 76.1427 262L78.2893 260.728L75.6259 256.872C70.9748 250.194 70.7363 249.876 70.7363 250.71Z" fill="#442862"/>
<path d="M65.8484 253.455C65.7292 253.892 65.1329 256.396 64.5764 259.02C64.0198 261.644 63.4633 264.108 63.344 264.466C63.1453 265.102 63.4633 265.182 65.9279 265.182H68.7504L68.4721 263.91C66.9615 256.277 66.0472 252.779 65.8484 253.455Z" fill="#442862"/>
<path d="M118.276 244.182V218H128.605C130.582 218 132.27 218.354 133.668 219.061C135.074 219.76 136.143 220.753 136.876 222.04C137.618 223.318 137.989 224.822 137.989 226.552C137.989 228.291 137.614 229.787 136.864 231.04C136.114 232.284 135.027 233.238 133.604 233.903C132.189 234.568 130.476 234.9 128.464 234.9H121.548V230.452H127.57C128.626 230.452 129.504 230.307 130.203 230.017C130.902 229.727 131.422 229.292 131.763 228.713C132.112 228.133 132.287 227.413 132.287 226.552C132.287 225.683 132.112 224.95 131.763 224.354C131.422 223.757 130.898 223.305 130.19 222.998C129.491 222.683 128.609 222.525 127.544 222.525H123.811V244.182H118.276ZM132.415 232.267L138.922 244.182H132.811L126.445 232.267H132.415ZM150.354 244.565C148.368 244.565 146.651 244.143 145.202 243.3C143.762 242.447 142.65 241.263 141.865 239.746C141.081 238.22 140.689 236.452 140.689 234.44C140.689 232.412 141.081 230.639 141.865 229.122C142.65 227.596 143.762 226.412 145.202 225.568C146.651 224.716 148.368 224.29 150.354 224.29C152.34 224.29 154.053 224.716 155.493 225.568C156.942 226.412 158.059 227.596 158.843 229.122C159.627 230.639 160.019 232.412 160.019 234.44C160.019 236.452 159.627 238.22 158.843 239.746C158.059 241.263 156.942 242.447 155.493 243.3C154.053 244.143 152.34 244.565 150.354 244.565ZM150.38 240.346C151.283 240.346 152.037 240.091 152.642 239.579C153.248 239.059 153.703 238.352 154.01 237.457C154.326 236.562 154.483 235.544 154.483 234.402C154.483 233.26 154.326 232.241 154.01 231.346C153.703 230.452 153.248 229.744 152.642 229.224C152.037 228.704 151.283 228.444 150.38 228.444C149.468 228.444 148.701 228.704 148.078 229.224C147.465 229.744 147 230.452 146.685 231.346C146.378 232.241 146.225 233.26 146.225 234.402C146.225 235.544 146.378 236.562 146.685 237.457C147 238.352 147.465 239.059 148.078 239.579C148.701 240.091 149.468 240.346 150.38 240.346ZM166.289 251.545C165.599 251.545 164.951 251.49 164.346 251.379C163.75 251.277 163.255 251.145 162.863 250.983L164.091 246.917C164.73 247.113 165.305 247.22 165.816 247.237C166.336 247.254 166.784 247.135 167.159 246.879C167.542 246.623 167.853 246.189 168.092 245.575L168.412 244.744L161.368 224.545H167.095L171.16 238.966H171.365L175.468 224.545H181.234L173.602 246.304C173.235 247.361 172.737 248.281 172.106 249.065C171.484 249.858 170.696 250.467 169.741 250.893C168.787 251.328 167.636 251.545 166.289 251.545ZM189.093 244.552C187.84 244.552 186.724 244.335 185.744 243.9C184.763 243.457 183.988 242.805 183.417 241.944C182.854 241.075 182.573 239.993 182.573 238.697C182.573 237.606 182.773 236.69 183.174 235.949C183.575 235.207 184.12 234.611 184.81 234.159C185.501 233.707 186.285 233.366 187.163 233.136C188.049 232.906 188.978 232.744 189.95 232.65C191.092 232.531 192.012 232.42 192.711 232.318C193.41 232.207 193.917 232.045 194.232 231.832C194.548 231.619 194.705 231.304 194.705 230.886V230.809C194.705 230 194.45 229.373 193.938 228.93C193.435 228.487 192.719 228.265 191.79 228.265C190.81 228.265 190.031 228.483 189.451 228.917C188.871 229.344 188.488 229.881 188.3 230.528L183.263 230.119C183.519 228.926 184.022 227.895 184.772 227.025C185.522 226.148 186.489 225.474 187.674 225.006C188.867 224.528 190.248 224.29 191.816 224.29C192.907 224.29 193.951 224.417 194.948 224.673C195.954 224.929 196.844 225.325 197.62 225.862C198.404 226.399 199.022 227.089 199.474 227.933C199.925 228.768 200.151 229.77 200.151 230.937V244.182H194.987V241.459H194.833C194.518 242.072 194.096 242.613 193.567 243.082C193.039 243.542 192.404 243.905 191.663 244.169C190.921 244.425 190.065 244.552 189.093 244.552ZM190.653 240.794C191.454 240.794 192.161 240.636 192.775 240.321C193.388 239.997 193.87 239.562 194.219 239.017C194.569 238.471 194.744 237.854 194.744 237.163V235.079C194.573 235.19 194.339 235.292 194.04 235.386C193.751 235.471 193.423 235.552 193.056 235.629C192.69 235.697 192.323 235.761 191.957 235.821C191.59 235.872 191.258 235.919 190.96 235.961C190.32 236.055 189.762 236.204 189.285 236.409C188.808 236.613 188.437 236.89 188.173 237.24C187.908 237.581 187.776 238.007 187.776 238.518C187.776 239.26 188.045 239.827 188.582 240.219C189.127 240.602 189.817 240.794 190.653 240.794ZM209.822 218V244.182H204.376V218H209.822ZM222.619 244.182V218H233.102C235.028 218 236.635 218.285 237.922 218.856C239.209 219.427 240.176 220.22 240.824 221.234C241.472 222.24 241.795 223.399 241.795 224.711C241.795 225.734 241.591 226.633 241.182 227.409C240.773 228.176 240.21 228.807 239.494 229.301C238.787 229.787 237.977 230.132 237.065 230.336V230.592C238.063 230.635 238.996 230.916 239.865 231.436C240.743 231.956 241.455 232.684 242 233.622C242.545 234.551 242.818 235.659 242.818 236.946C242.818 238.335 242.473 239.575 241.783 240.666C241.101 241.748 240.091 242.605 238.753 243.236C237.415 243.866 235.766 244.182 233.805 244.182H222.619ZM228.155 239.656H232.668C234.21 239.656 235.335 239.362 236.043 238.774C236.75 238.177 237.104 237.385 237.104 236.396C237.104 235.672 236.929 235.032 236.58 234.479C236.23 233.925 235.732 233.49 235.084 233.175C234.445 232.859 233.682 232.702 232.795 232.702H228.155V239.656ZM228.155 228.956H232.259C233.017 228.956 233.69 228.824 234.278 228.559C234.875 228.287 235.344 227.903 235.685 227.409C236.034 226.915 236.209 226.322 236.209 225.632C236.209 224.686 235.872 223.923 235.199 223.344C234.534 222.764 233.588 222.474 232.361 222.474H228.155V228.956ZM251.917 244.552C250.664 244.552 249.548 244.335 248.568 243.9C247.588 243.457 246.812 242.805 246.241 241.944C245.679 241.075 245.397 239.993 245.397 238.697C245.397 237.606 245.598 236.69 245.998 235.949C246.399 235.207 246.944 234.611 247.635 234.159C248.325 233.707 249.109 233.366 249.987 233.136C250.873 232.906 251.802 232.744 252.774 232.65C253.916 232.531 254.836 232.42 255.535 232.318C256.234 232.207 256.741 232.045 257.056 231.832C257.372 231.619 257.529 231.304 257.529 230.886V230.809C257.529 230 257.274 229.373 256.762 228.93C256.26 228.487 255.544 228.265 254.615 228.265C253.635 228.265 252.855 228.483 252.275 228.917C251.696 229.344 251.312 229.881 251.125 230.528L246.088 230.119C246.343 228.926 246.846 227.895 247.596 227.025C248.346 226.148 249.314 225.474 250.498 225.006C251.691 224.528 253.072 224.29 254.64 224.29C255.731 224.29 256.775 224.417 257.772 224.673C258.778 224.929 259.669 225.325 260.444 225.862C261.228 226.399 261.846 227.089 262.298 227.933C262.75 228.768 262.975 229.77 262.975 230.937V244.182H257.811V241.459H257.657C257.342 242.072 256.92 242.613 256.392 243.082C255.863 243.542 255.228 243.905 254.487 244.169C253.745 244.425 252.889 244.552 251.917 244.552ZM253.477 240.794C254.278 240.794 254.985 240.636 255.599 240.321C256.213 239.997 256.694 239.562 257.044 239.017C257.393 238.471 257.568 237.854 257.568 237.163V235.079C257.397 235.19 257.163 235.292 256.865 235.386C256.575 235.471 256.247 235.552 255.88 235.629C255.514 235.697 255.147 235.761 254.781 235.821C254.414 235.872 254.082 235.919 253.784 235.961C253.145 236.055 252.586 236.204 252.109 236.409C251.632 236.613 251.261 236.89 250.997 237.24C250.733 237.581 250.6 238.007 250.6 238.518C250.6 239.26 250.869 239.827 251.406 240.219C251.951 240.602 252.642 240.794 253.477 240.794ZM272.647 232.829V244.182H267.201V224.545H272.391V228.01H272.621C273.056 226.868 273.784 225.964 274.807 225.3C275.83 224.626 277.07 224.29 278.527 224.29C279.891 224.29 281.08 224.588 282.094 225.184C283.108 225.781 283.897 226.633 284.459 227.741C285.022 228.841 285.303 230.153 285.303 231.679V244.182H279.857V232.65C279.865 231.449 279.559 230.511 278.936 229.838C278.314 229.156 277.458 228.815 276.367 228.815C275.634 228.815 274.986 228.973 274.424 229.288C273.87 229.604 273.435 230.064 273.12 230.669C272.813 231.265 272.655 231.986 272.647 232.829ZM294.53 238.531L294.543 231.998H295.335L301.625 224.545H307.876L299.426 234.415H298.135L294.53 238.531ZM289.595 244.182V218H295.041V244.182H289.595ZM301.868 244.182L296.089 235.629L299.72 231.781L308.247 244.182H301.868ZM318.983 244.182V218H329.312C331.298 218 332.99 218.379 334.387 219.138C335.785 219.888 336.85 220.932 337.583 222.27C338.325 223.599 338.696 225.133 338.696 226.872C338.696 228.611 338.321 230.145 337.571 231.474C336.821 232.804 335.734 233.839 334.311 234.581C332.896 235.322 331.183 235.693 329.172 235.693H322.588V231.257H328.277C329.342 231.257 330.22 231.074 330.91 230.707C331.609 230.332 332.129 229.817 332.47 229.16C332.819 228.496 332.994 227.733 332.994 226.872C332.994 226.003 332.819 225.244 332.47 224.596C332.129 223.94 331.609 223.433 330.91 223.075C330.211 222.709 329.325 222.525 328.251 222.525H324.518V244.182H318.983ZM347.261 244.552C346.008 244.552 344.892 244.335 343.912 243.9C342.931 243.457 342.156 242.805 341.585 241.944C341.022 241.075 340.741 239.993 340.741 238.697C340.741 237.606 340.941 236.69 341.342 235.949C341.743 235.207 342.288 234.611 342.978 234.159C343.669 233.707 344.453 233.366 345.331 233.136C346.217 232.906 347.146 232.744 348.118 232.65C349.26 232.531 350.18 232.42 350.879 232.318C351.578 232.207 352.085 232.045 352.4 231.832C352.716 231.619 352.873 231.304 352.873 230.886V230.809C352.873 230 352.618 229.373 352.106 228.93C351.603 228.487 350.887 228.265 349.958 228.265C348.978 228.265 348.199 228.483 347.619 228.917C347.039 229.344 346.656 229.881 346.468 230.528L341.431 230.119C341.687 228.926 342.19 227.895 342.94 227.025C343.69 226.148 344.657 225.474 345.842 225.006C347.035 224.528 348.416 224.29 349.984 224.29C351.075 224.29 352.119 224.417 353.116 224.673C354.122 224.929 355.012 225.325 355.788 225.862C356.572 226.399 357.19 227.089 357.642 227.933C358.093 228.768 358.319 229.77 358.319 230.937V244.182H353.154V241.459H353.001C352.686 242.072 352.264 242.613 351.735 243.082C351.207 243.542 350.572 243.905 349.831 244.169C349.089 244.425 348.233 244.552 347.261 244.552ZM348.821 240.794C349.622 240.794 350.329 240.636 350.943 240.321C351.556 239.997 352.038 239.562 352.387 239.017C352.737 238.471 352.912 237.854 352.912 237.163V235.079C352.741 235.19 352.507 235.292 352.208 235.386C351.919 235.471 351.591 235.552 351.224 235.629C350.858 235.697 350.491 235.761 350.125 235.821C349.758 235.872 349.426 235.919 349.127 235.961C348.488 236.055 347.93 236.204 347.453 236.409C346.975 236.613 346.605 236.89 346.341 237.24C346.076 237.581 345.944 238.007 345.944 238.518C345.944 239.26 346.213 239.827 346.75 240.219C347.295 240.602 347.985 240.794 348.821 240.794ZM371.417 244.565C369.405 244.565 367.675 244.139 366.226 243.287C364.786 242.426 363.678 241.233 362.902 239.707C362.135 238.182 361.752 236.426 361.752 234.44C361.752 232.429 362.14 230.665 362.915 229.148C363.699 227.622 364.811 226.433 366.252 225.581C367.692 224.72 369.405 224.29 371.391 224.29C373.104 224.29 374.604 224.601 375.891 225.223C377.178 225.845 378.196 226.719 378.946 227.844C379.696 228.969 380.11 230.29 380.186 231.807H375.047C374.902 230.827 374.519 230.038 373.897 229.442C373.283 228.836 372.478 228.534 371.48 228.534C370.637 228.534 369.9 228.764 369.269 229.224C368.647 229.676 368.161 230.336 367.811 231.206C367.462 232.075 367.287 233.128 367.287 234.363C367.287 235.616 367.458 236.682 367.799 237.559C368.148 238.437 368.638 239.106 369.269 239.567C369.9 240.027 370.637 240.257 371.48 240.257C372.103 240.257 372.661 240.129 373.155 239.873C373.658 239.618 374.071 239.247 374.395 238.761C374.728 238.267 374.945 237.675 375.047 236.984H380.186C380.101 238.484 379.692 239.805 378.959 240.947C378.235 242.081 377.233 242.967 375.955 243.606C374.676 244.246 373.164 244.565 371.417 244.565ZM383.673 244.182V224.545H389.119V244.182H383.673ZM386.409 222.014C385.599 222.014 384.905 221.746 384.325 221.209C383.754 220.663 383.469 220.011 383.469 219.253C383.469 218.503 383.754 217.859 384.325 217.322C384.905 216.777 385.599 216.504 386.409 216.504C387.219 216.504 387.909 216.777 388.48 217.322C389.06 217.859 389.349 218.503 389.349 219.253C389.349 220.011 389.06 220.663 388.48 221.209C387.909 221.746 387.219 222.014 386.409 222.014ZM404.042 224.545V228.636H391.922V224.545H404.042ZM394.696 244.182V223.126C394.696 221.703 394.973 220.523 395.527 219.585C396.09 218.648 396.857 217.944 397.828 217.476C398.8 217.007 399.904 216.773 401.14 216.773C401.975 216.773 402.738 216.836 403.428 216.964C404.127 217.092 404.647 217.207 404.988 217.309L404.016 221.4C403.803 221.332 403.539 221.268 403.223 221.209C402.917 221.149 402.601 221.119 402.277 221.119C401.476 221.119 400.918 221.307 400.603 221.682C400.287 222.048 400.13 222.564 400.13 223.229V244.182H394.696ZM407.369 244.182V224.545H412.815V244.182H407.369ZM410.104 222.014C409.295 222.014 408.6 221.746 408.021 221.209C407.45 220.663 407.164 220.011 407.164 219.253C407.164 218.503 407.45 217.859 408.021 217.322C408.6 216.777 409.295 216.504 410.104 216.504C410.914 216.504 411.604 216.777 412.175 217.322C412.755 217.859 413.045 218.503 413.045 219.253C413.045 220.011 412.755 220.663 412.175 221.209C411.604 221.746 410.914 222.014 410.104 222.014ZM426.049 244.565C424.038 244.565 422.308 244.139 420.859 243.287C419.419 242.426 418.311 241.233 417.535 239.707C416.768 238.182 416.385 236.426 416.385 234.44C416.385 232.429 416.772 230.665 417.548 229.148C418.332 227.622 419.444 226.433 420.885 225.581C422.325 224.72 424.038 224.29 426.024 224.29C427.737 224.29 429.237 224.601 430.524 225.223C431.811 225.845 432.829 226.719 433.579 227.844C434.329 228.969 434.743 230.29 434.819 231.807H429.68C429.535 230.827 429.152 230.038 428.529 229.442C427.916 228.836 427.11 228.534 426.113 228.534C425.27 228.534 424.532 228.764 423.902 229.224C423.279 229.676 422.794 230.336 422.444 231.206C422.095 232.075 421.92 233.128 421.92 234.363C421.92 235.616 422.091 236.682 422.431 237.559C422.781 238.437 423.271 239.106 423.902 239.567C424.532 240.027 425.27 240.257 426.113 240.257C426.735 240.257 427.294 240.129 427.788 239.873C428.291 239.618 428.704 239.247 429.028 238.761C429.36 238.267 429.578 237.675 429.68 236.984H434.819C434.734 238.484 434.325 239.805 433.592 240.947C432.868 242.081 431.866 242.967 430.588 243.606C429.309 244.246 427.797 244.565 426.049 244.565Z" fill="#442862"/>
</svg>
